<?xml version="1.0" ?><svg id="Layer_1" style="enable-background:new 0 0 65 65;" version="1.1" viewBox="0 0 65 65" xml:space="preserve" xmlns="http://www.w3.org/2000/svg" xmlns:xlink="http://www.w3.org/1999/xlink"><style type="text/css">
	.st0{fill:#1C1F20;}
</style><g><path class="st0" d="M58.5,62.8h-14c-0.4,0-0.8,0.3-0.8,0.8s0.3,0.8,0.8,0.8h14c0.4,0,0.8-0.3,0.8-0.8S58.9,62.8,58.5,62.8z"/><path class="st0" d="M63.5,62.8h-2c-0.4,0-0.8,0.3-0.8,0.8s0.3,0.8,0.8,0.8h2c0.4,0,0.8-0.3,0.8-0.8S63.9,62.8,63.5,62.8z"/><path class="st0" d="M1.5,14.3c0.4,0,0.8-0.3,0.8-0.8v-8c0-0.4-0.3-0.8-0.8-0.8S0.7,5.1,0.7,5.5v8C0.7,13.9,1.1,14.3,1.5,14.3z"/><path class="st0" d="M1.5,3.3c0.4,0,0.8-0.3,0.8-0.8v-1c0-0.4-0.3-0.8-0.8-0.8S0.7,1.1,0.7,1.5v1C0.7,2.9,1.1,3.3,1.5,3.3z"/><path class="st0" d="M11.5,6.3h1.3v1.3c0,0.4,0.3,0.8,0.8,0.8s0.8-0.3,0.8-0.8V6.3h1.3c0.4,0,0.8-0.3,0.8-0.8s-0.3-0.8-0.8-0.8   h-1.3V3.5c0-0.4-0.3-0.8-0.8-0.8s-0.8,0.3-0.8,0.8v1.3h-1.3c-0.4,0-0.8,0.3-0.8,0.8S11.1,6.3,11.5,6.3z"/><path class="st0" d="M49.5,57.3c0.4,0,0.8-0.3,0.8-0.8v-1.3h1.3c0.4,0,0.8-0.3,0.8-0.8s-0.3-0.8-0.8-0.8h-1.3v-1.3   c0-0.4-0.3-0.8-0.8-0.8s-0.8,0.3-0.8,0.8v1.3h-1.3c-0.4,0-0.8,0.3-0.8,0.8s0.3,0.8,0.8,0.8h1.3v1.3C48.7,56.9,49.1,57.3,49.5,57.3z   "/><path class="st0" d="M40.5,48.3c4.8,0,9.4-1.4,13.4-4.1l9.3,4.1c0.1,0,0.2,0.1,0.3,0.1c0.2,0,0.4-0.1,0.5-0.2   c0.2-0.2,0.3-0.5,0.2-0.8l-3.3-10.7c2.2-3.7,3.3-7.8,3.3-12.1c0-13.1-10.7-23.8-23.8-23.8S16.8,11.4,16.8,24.5S27.4,48.3,40.5,48.3   z M40.5,2.3c12.3,0,22.3,10,22.3,22.3c0,4.1-1.1,8.1-3.3,11.6c-0.1,0.2-0.1,0.4-0.1,0.6l2.9,9.4l-8.2-3.6c-0.2-0.1-0.5-0.1-0.7,0.1   c-3.8,2.7-8.2,4.1-12.9,4.1c-12.3,0-22.3-10-22.3-22.3S28.2,2.3,40.5,2.3z"/><path class="st0" d="M24.6,14.1c0.1,0.1,0.3,0.1,0.4,0.1c0.2,0,0.5-0.1,0.6-0.3c3.4-4.8,9-7.7,14.9-7.7c0.4,0,0.8-0.3,0.8-0.8   s-0.3-0.8-0.8-0.8c-6.4,0-12.4,3.1-16.1,8.3C24.2,13.4,24.2,13.9,24.6,14.1z"/><path class="st0" d="M29.5,19.8c-2.6,0-4.7,2.1-4.7,4.8s2.1,4.8,4.7,4.8c2.6,0,4.8-2.1,4.8-4.8S32.1,19.8,29.5,19.8z M29.5,27.8   c-1.8,0-3.2-1.5-3.2-3.3s1.5-3.3,3.2-3.3s3.3,1.5,3.3,3.3S31.3,27.8,29.5,27.8z"/><path class="st0" d="M36.8,24.5c0,2.6,2.1,4.8,4.8,4.8c2.6,0,4.7-2.1,4.7-4.8s-2.1-4.8-4.7-4.8C38.9,19.8,36.8,21.9,36.8,24.5z    M41.5,21.3c1.8,0,3.2,1.5,3.2,3.3s-1.5,3.3-3.2,3.3s-3.3-1.5-3.3-3.3S39.7,21.3,41.5,21.3z"/><path class="st0" d="M53.5,29.3c2.6,0,4.8-2.1,4.8-4.8s-2.1-4.8-4.8-4.8s-4.8,2.1-4.8,4.8S50.9,29.3,53.5,29.3z M53.5,21.3   c1.8,0,3.3,1.5,3.3,3.3s-1.5,3.3-3.3,3.3s-3.3-1.5-3.3-3.3S51.7,21.3,53.5,21.3z"/><path class="st0" d="M39.5,50.9c-4.1,3.8-9.4,5.8-15,5.8c-4.6,0-9.1-1.4-12.9-4.1c-0.2-0.2-0.5-0.2-0.7-0.1l-8.2,3.6l2.9-9.4   c0.1-0.2,0-0.4-0.1-0.6c-2.1-3.5-3.3-7.5-3.3-11.6c0-9.2,5.5-17.3,14-20.7c0.4-0.2,0.6-0.6,0.4-1c-0.2-0.4-0.6-0.6-1-0.4   c-9.1,3.6-15,12.3-15,22.1c0,4.3,1.1,8.5,3.3,12.1L0.8,57.3c-0.1,0.3,0,0.6,0.2,0.8c0.1,0.1,0.3,0.2,0.5,0.2c0.1,0,0.2,0,0.3-0.1   l9.3-4.1c4,2.7,8.6,4.1,13.4,4.1c5.9,0,11.6-2.2,16-6.2c0.3-0.3,0.3-0.8,0-1.1C40.3,50.7,39.8,50.7,39.5,50.9z"/></g></svg>