<?xml version="1.0" ?><svg viewBox="0 0 22.08 22.08" xmlns="http://www.w3.org/2000/svg"><g data-name="Layer 2" id="Layer_2"><g data-name="Layer 1" id="Layer_1-2"><path d="M8.7,6.9A1.86,1.86,0,0,0,7.679,8.574a.335.335,0,0,1-.669,0,2.508,2.508,0,0,1,1.3-2.216c.531-.387.95-.692.95-1.485a1.916,1.916,0,0,0-3.832,0,.335.335,0,0,1-.669,0A2.588,2.588,0,0,1,7.344,2.288C9.917,2.29,10.9,5.718,8.7,6.9ZM7.11,10.051c-.311.3.169.783.472.472S7.409,9.748,7.11,10.051Zm14.97.909v7.247a1.72,1.72,0,0,1-1.718,1.718h-6.88a4.281,4.281,0,0,0-2.106.555L8.624,22.036a.336.336,0,0,1-.5-.291V12.908H1.719A1.734,1.734,0,0,1,0,11.19V1.719A1.7,1.7,0,0,1,.538.475h0A1.716,1.716,0,0,1,1.719,0H12.97a1.734,1.734,0,0,1,1.718,1.719V9.242h5.674A1.72,1.72,0,0,1,22.08,10.96Zm-8.061,3.748V1.719A1.061,1.061,0,0,0,12.97.67H1.719A1.062,1.062,0,0,0,.669,1.719V11.19a1.062,1.062,0,0,0,1.05,1.049H8.353C10.084,12.1,12.551,13.968,14.019,14.708Zm7.392-3.748a1.051,1.051,0,0,0-1.049-1.049H14.688v5.37a.336.336,0,0,1-.5.291c-1.12-.541-4.128-2.631-5.395-2.635v8.235c1.312-.7,3.121-2.027,4.688-1.915h6.88a1.051,1.051,0,0,0,1.049-1.05Zm-3.421.613a.335.335,0,0,0-.335.335v3.568a.335.335,0,0,0,.669,0V11.908A.334.334,0,0,0,17.99,11.573Zm-.238,5.449c-.311.3.172.784.473.473S18.056,16.719,17.752,17.022Z" data-name="questions and answers" id="questions_and_answers"/></g></g></svg>